<svg xmlns="http://www.w3.org/2000/svg" viewBox="0 0 500 140">
<style type="text/css">
	.blue { fill: #0090FF; }
	.white { fill: #FFFFFF; }
</style>
<g>
	<circle class="blue" cx="71.5" cy="70.2" r="66.4"/>
	<path class="white" d="M71.2,57.3c1.5-6.5,3.4-12.3,5.4-16.1c0.7-1.8,3.7-6.2,6.9-9.1c5.4-4.8,11.4-6,17.7-2.1l-0.6,0.9l0.6-0.9
		c3.2,2,4.5,4.1,3.9,6c-0.4,1.5-2,2.6-2.9,2.5c-1.2,0.1-2.5-0.1-3.7-1c-1-0.8-1.8-1.8-2.2-3c-0.9-2.1-2-2.8-3.5-2.6
		c-1,0.1-2.2,0.8-2.6,1.2l-1,1.1c-0.8,0.8-1.4,1.7-2,2.6c-2,3.3-3.8,9.3-6.3,21.8l16.8,2.5l-0.9,6.7l-17-2.5l-0.7,4.4l-0.2,1.1
		c-0.1,0.6-0.2,1.2-0.3,1.9l17.2,2.5l-1,6.7l-17.6-2.6c-2,8.6-4.7,17.9-6.6,21.5c-0.7,1.8-3.7,6.2-6.9,9.1c-5.4,4.8-11.4,6-17.7,2.1
		c-3.2-2-4.5-4.1-3.9-6c0.4-1.5,2-2.6,2.9-2.5c1.2-0.1,2.5,0.1,3.7,1c0.9,0.7,1.7,1.7,2.2,3c0.9,2.1,2,2.8,3.5,2.6
		c1-0.1,2.2-0.8,2.6-1.2c3.8-4.2,6.8-12.3,10.5-30.9l-16.8-2.5l0.9-6.7l17,2.5l0.7-4.4c0.2-1,0.3-2,0.5-3l-17.1-2.5l1-6.7
		C53.7,54.8,71.2,57.3,71.2,57.3z"/>
</g>
<g>
	<g>
		<path d="M204.4,102.1c-3.6,0-7.1,0-10.6,0c0-20.4,0-40.8,0-61.2c14.2,0,28.3,0,42.5,0c0,3,0,5.9,0,8.9c-10.6,0-21.2,0-31.8,0
			c0,5.5,0,10.9,0,16.4c10,0,19.9,0,29.9,0c0,3,0,5.9,0,8.9c-9.9,0-19.9,0-29.9,0C204.4,84.1,204.4,93,204.4,102.1z"/>
		<path d="M327.2,82.3c-11.3,0-22.5,0-33.7,0c-0.2,5.3,3.8,10.6,8.9,12.1c6,1.7,11.4-0.5,14.5-5.9c3.2,0,6.4,0,9.8,0
			c-2.2,6.7-6.4,11.3-13,13.5c-16.9,5.7-32.6-7.9-30.4-26c2.5-19.8,22.4-24.8,34-17C325.4,64.6,327.5,72.9,327.2,82.3z M317,74.9
			c-0.3-4.2-1.9-7.6-5.5-9.7c-4.2-2.4-8.5-2.3-12.6,0.2c-3.5,2.1-5,5.5-5.5,9.5C301.3,74.9,309.1,74.9,317,74.9z"/>
		<path d="M427.3,80c-0.2,9-3.3,16.9-12.4,21c-8.7,3.9-17.2,3.1-24.6-3.1C381,90.3,380,72.4,388.1,63c7.8-9.1,22.5-10.1,31.8-2
			C425.4,65.9,427.2,72.4,427.3,80z M417,79.5c0-1.9-0.6-4.7-0.7-5.2c-1.2-5.8-5-9.7-10-10.3c-5-0.6-9.5,1.8-11.6,6.7
			c-2.6,6-2.7,12.2,0.2,18.1c3.6,7.5,13.9,8.7,18.6,1.9C415.7,87.5,417,83.5,417,79.5"/>
		<path d="M496.4,102.1c-3.2,0-6.5,0-9.8,0c0-5.6,0-11.3,0-16.9c0-4.5,0.1-9-0.3-13.5c-0.5-5.1-2.8-7.4-6.9-7.8
			c-5.3-0.5-9.3,1.7-10.7,6.4c-0.7,2.3-1.1,4.9-1.1,7.3c-0.1,8.1-0.1,16.2-0.1,24.4c-3.3,0-6.6,0-10,0c0-15.1,0-30.2,0-45.4
			c3.3,0,6.6,0,9.9,0c0,2,0,3.9,0,6.2c2.5-4.2,6-6.4,10.4-7c10.8-1.6,17.7,3.2,18.4,14.1C497,80.6,496.4,91.3,496.4,102.1z"/>
		<path d="M367.1,86.6c3.2,0,6.4,0,9.6,0c-0.4,7-7.9,14.5-16.2,16.1c-16.5,3.2-29.4-10.4-26.3-27.7c2.9-16.2,18.5-24.3,32.4-16.8
			c5.2,2.8,9.3,8.7,9.8,13.8c-3.2,0-6.4,0-9.6,0c-1.7-8.1-11.4-10.1-17-6.3c-7.6,5.2-7.5,22.2,0.2,27.2
			C356.3,97.2,364,94.3,367.1,86.6z"/>
		<path d="M264.6,40.9c3.3,0,6.5,0,9.9,0c0,20.4,0,40.8,0,61.2c-3.3,0-6.5,0-9.9,0C264.6,81.7,264.6,61.3,264.6,40.9z"/>
		<path d="M243.3,56.7c3.3,0,6.6,0,9.9,0c0,15.1,0,30.2,0,45.4c-3.3,0-6.6,0-9.9,0C243.3,86.9,243.3,71.8,243.3,56.7z"/>
		<path d="M446.2,102.1c-3.3,0-6.6,0-9.9,0c0-15.1,0-30.2,0-45.4c3.3,0,6.6,0,9.9,0C446.2,71.8,446.2,86.9,446.2,102.1z"/>
		<path d="M253.2,50.9c-3.3,0-6.6,0-9.9,0c0-3.4,0-6.7,0-10.1c3.3,0,6.6,0,9.9,0C253.2,44.2,253.2,47.5,253.2,50.9z"/>
		<path d="M436.2,50.9c0-3.4,0-6.7,0-10c3.3,0,6.6,0,10,0c0,3.3,0,6.6,0,10C442.9,50.9,439.6,50.9,436.2,50.9z"/>
	</g>
</g>
</svg>
